HIERARCHY
ROOT Hip
{
	OFFSET 0 1.131 0.0052
	CHANNELS 6 Xposition Yposition Zposition Xrotation Yrotation Zrotation
	JOINT Abdomen
	{
		OFFSET 0 -0.047353 -0.05
		CHANNELS 3 Xrotation Zrotation Yrotation
		JOINT Chest
		{
			OFFSET 0 0.132153 0.007439
			CHANNELS 3 Xrotation Zrotation Yrotation
			JOINT Neck
			{
				OFFSET 0 0.3078 0.006161
				CHANNELS 3 Xrotation Zrotation Yrotation
				JOINT Head_comp
				{
					OFFSET 0 0.0884 0.013
					CHANNELS 3 Xrotation Yrotation Zrotation
					End Site
					{
						OFFSET -0 0.156 0.0624
					}
				}
			}
			JOINT Left_Collar
			{
				OFFSET 0.02282 0.250342 0.017193
				CHANNELS 2 Yrotation Zrotation
				JOINT Left_Shoulder
				{
					OFFSET 0.15421 0 0
					CHANNELS 3 Xrotation Yrotation Zrotation
					JOINT Left_Forearm
					{
						OFFSET 0.265212 0 0
						CHANNELS 2 Yrotation Xrotation
						JOINT Left_Hand
						{
							OFFSET 0.27571 0 0
							CHANNELS 2 Zrotation Yrotation
							JOINT L1ProxPhalanx
							{
								OFFSET 0.014142 0.001733 0.014142
								CHANNELS 3 Yrotation Zrotation Xrotation
								JOINT L1MidPhalanx
								{
									OFFSET 0.04 0 0
									CHANNELS 1 Zrotation
									JOINT L1DistPhalanx
									{
										OFFSET 0.035 0 0
										CHANNELS 1 Zrotation
										End Site
										{
											OFFSET 0.029 -0 -0
										}
									}
								}
							}
							JOINT L2ProxPhalanx
							{
								OFFSET 0.0821037 0.001578 0.0219996
								CHANNELS 2 Yrotation Zrotation
								JOINT L2MidPhalanx
								{
									OFFSET 0.04 0 0
									CHANNELS 1 Zrotation
									JOINT L2DistPhalanx
									{
										OFFSET 0.028 0 0
										CHANNELS 1 Zrotation
										End Site
										{
											OFFSET 0.02 -0 -0
										}
									}
								}
							}
							JOINT L3ProxPhalanx
							{
								OFFSET 0.083 0 0
								CHANNELS 2 Yrotation Zrotation
								JOINT L3MidPhalanx
								{
									OFFSET 0.053 0 0
									CHANNELS 1 Zrotation
									JOINT L3DistPhalanx
									{
										OFFSET 0.03 0 0
										CHANNELS 1 Zrotation
										End Site
										{
											OFFSET 0.023 -0 -0
										}
									}
								}
							}
							JOINT L4ProxPhalanx
							{
								OFFSET 0.077274 -0.000761 -0.0207055
								CHANNELS 2 Yrotation Zrotation
								JOINT L4MidPhalanx
								{
									OFFSET 0.05 0 0
									CHANNELS 1 Zrotation
									JOINT L4DistPhalanx
									{
										OFFSET 0.03 0 0
										CHANNELS 1 Zrotation
										End Site
										{
											OFFSET 0.023 -0 -0
										}
									}
								}
							}
							JOINT L5ProxPhalanx
							{
								OFFSET 0.0675499 -0.001644 -0.039
								CHANNELS 2 Yrotation Zrotation
								JOINT L5MidPhalanx
								{
									OFFSET 0.04 0 0
									CHANNELS 1 Zrotation
									JOINT L5DistPhalanx
									{
										OFFSET 0.021 0 0
										CHANNELS 1 Zrotation
										End Site
										{
											OFFSET 0.022 -0 -0
										}
									}
								}
							}
						}
					}
				}
			}
			JOINT Right_Collar
			{
				OFFSET -0.02282 0.250342 0.017193
				CHANNELS 2 Yrotation Zrotation
				JOINT Right_Shoulder
				{
					OFFSET -0.15421 0 0
					CHANNELS 3 Xrotation Yrotation Zrotation
					JOINT Right_Forearm
					{
						OFFSET -0.265212 0 0
						CHANNELS 2 Yrotation Xrotation
						JOINT Right_Hand
						{
							OFFSET -0.27571 3e-006 0
							CHANNELS 2 Zrotation Yrotation
							JOINT R1ProxPhalanx
							{
								OFFSET -0.014142 0.001733 0.014142
								CHANNELS 3 Yrotation Zrotation Xrotation
								JOINT R1MidPhalanx
								{
									OFFSET -0.04 0 0
									CHANNELS 1 Zrotation
									JOINT R1DistPhalanx
									{
										OFFSET -0.035 0 0
										CHANNELS 1 Zrotation
										End Site
										{
											OFFSET -0.029 -0 -0
										}
									}
								}
							}
							JOINT R2ProxPhalanx
							{
								OFFSET -0.0821037 0.001578 0.0219996
								CHANNELS 2 Yrotation Zrotation
								JOINT R2MidPhalanx
								{
									OFFSET -0.04 0 0
									CHANNELS 1 Zrotation
									JOINT R2DistPhalanx
									{
										OFFSET -0.028 0 0
										CHANNELS 1 Zrotation
										End Site
										{
											OFFSET -0.02 -0 -0
										}
									}
								}
							}
							JOINT R3ProxPhalanx
							{
								OFFSET -0.083 0 0
								CHANNELS 2 Yrotation Zrotation
								JOINT R3MidPhalanx
								{
									OFFSET -0.053 0 0
									CHANNELS 1 Zrotation
									JOINT R3DistPhalanx
									{
										OFFSET -0.03 0 0
										CHANNELS 1 Zrotation
										End Site
										{
											OFFSET -0.023 -0 -0
										}
									}
								}
							}
							JOINT R4ProxPhalanx
							{
								OFFSET -0.077274 -0.000761 -0.0207055
								CHANNELS 2 Yrotation Zrotation
								JOINT R4MidPhalanx
								{
									OFFSET -0.05 0 0
									CHANNELS 1 Zrotation
									JOINT R4DistPhalanx
									{
										OFFSET -0.03 0 0
										CHANNELS 1 Zrotation
										End Site
										{
											OFFSET -0.023 -0 -0
										}
									}
								}
							}
							JOINT R5ProxPhalanx
							{
								OFFSET -0.0675499 -0.001644 -0.039
								CHANNELS 2 Yrotation Zrotation
								JOINT R5MidPhalanx
								{
									OFFSET -0.04 0 0
									CHANNELS 1 Zrotation
									JOINT R5DistPhalanx
									{
										OFFSET -0.021 0 0
										CHANNELS 1 Zrotation
										End Site
										{
											OFFSET -0.022 -0 -0
										}
									}
								}
							}
						}
					}
				}
			}
		}
	}
	JOINT Left_Thigh
	{
		OFFSET 0.1118 -0.1612 -0.0442
		CHANNELS 3 Xrotation Zrotation Yrotation
		JOINT Left_Shin
		{
			OFFSET 0 -0.477856 0
			CHANNELS 1 Xrotation
			JOINT Left_Foot
			{
				OFFSET 0 -0.431952 0
				CHANNELS 2 Xrotation Zrotation
				JOINT Left_Toe
				{
					OFFSET 0 -0.0442 0.119
					CHANNELS 1 Xrotation
					End Site
					{
						OFFSET -0 -0 0.07
					}
				}
			}
		}
	}
	JOINT Right_Thigh
	{
		OFFSET -0.1118 -0.1612 -0.0442
		CHANNELS 3 Xrotation Zrotation Yrotation
		JOINT Right_Shin
		{
			OFFSET 0 -0.477856 0
			CHANNELS 1 Xrotation
			JOINT Right_Foot
			{
				OFFSET 0 -0.431952 0
				CHANNELS 2 Xrotation Zrotation
				JOINT Right_Toe
				{
					OFFSET 0 -0.0442 0.119
					CHANNELS 1 Xrotation
					End Site
					{
						OFFSET -0 -0 0.07
					}
				}
			}
		}
	}
}
MOTION
Frames: 15
Frame Time: 0.009975
-0.106526 -0.060033 0.0458369 9.7516e-013 3.8396e-008 -5.10927e-006 0 0 0 0 0 0 0 0 0 0 0 0 0 0 -0 0 -0 0 0 0 0 -25.1932 -76.2826 110.14 -8.01952 -7.76782 -4.76231 -24.8242 -9.66671 -14.4782 0.628936 0.431265 -3.28419 -4.96365 -0.36062 1.79926 -6.5661 -2.81471 8.6241 3.95937 -32.1439 24.2071 0 0 -0 0 -0 0 0 0 0 37.9386 28.008 73.698 26.2405 28.4472 13.118 18.2167 29.0248 19.6359 0 22.4358 32.6146 28.1246 -8.63175 30.7051 32.2053 23.7634 -7.83088 26.7354 35.1526 30.0193 0.419164 -0.332126 -0.00242983 0.0240216 -0.443178 0.33214 0 0.430569 -0.332125 -0.00249594 2.41484e-006 -0.430564 0.33214 0 
-0.106526 -0.060033 0.0458369 9.7516e-013 3.8396e-008 -5.10927e-006 0 0 0 0 0 0 0 0 0 0 0 0 0 0 -0 0 -0 0 0 0 0 -25.1932 -76.2826 110.14 -8.01952 -7.76782 -4.76231 -24.8242 -9.66671 -14.4782 0.628936 0.431265 -3.28419 -4.96365 -0.36062 1.79926 -6.5661 -2.81471 8.6241 3.95937 -32.1439 24.2071 0 0 -0 0 -0 0 0 0 0 37.9386 28.008 73.698 26.2405 28.4472 13.118 18.2167 29.0248 19.6359 0 22.4358 32.6146 28.1246 -8.63175 30.7051 32.2053 23.7634 -7.83088 26.7354 35.1526 30.0193 0.419164 -0.332126 -0.00242983 0.0240216 -0.443178 0.33214 0 0.430569 -0.332125 -0.00249594 2.41484e-006 -0.430564 0.33214 0 
-0.101406 -0.0600776 0.0321446 1.78605e-012 -3.85037e-008 -5.08397e-006 0 -0 0 0 -0 0 0 -0 0 -0.709874 0.290993 -9.05867e-006 -11.063 -15.317 -22.9913 -25.8836 -23.2038 -26.8744 18.6929 6.36573 -4.28125 -25.8502 -76.0669 109.482 -8.15442 -7.82898 -4.74351 -24.8501 -9.81838 -14.4808 0.625875 0.269112 -3.46777 -5.02883 -0.351594 1.63028 -6.73327 -2.89064 8.61124 3.8196 -32.1532 23.986 11.063 15.317 -22.9913 25.8836 23.2038 26.8744 18.6929 -6.36573 4.28125 25.8502 76.0669 109.482 8.15442 7.82898 4.74351 24.8501 9.81838 14.4808 -0.625875 -0.269112 3.46777 5.02883 0.351594 -1.63028 6.73327 2.89064 -8.61124 -3.8196 32.1532 -23.986 -0.443104 -0.654579 0.00507501 0.0239015 0.419173 0.654604 0 -0.431755 -0.65458 0.00494504 0 0.431727 0.654604 0 
-0.10135 -0.0600868 0.031041 1.79501e-012 -3.86972e-008 -5.10951e-006 0 -0 0 0 -0 0 0 -0 0 -0.711506 0.290614 -2.35043e-010 -11.1182 -15.3937 -22.9908 -26.1032 -22.713 -27.0454 18.7851 6.3977 -4.30274 -25.1932 -76.2826 110.14 -8.01952 -7.76782 -4.76231 -24.8242 -9.66671 -14.4782 0.628936 0.431265 -3.28419 -4.96365 -0.36062 1.79926 -6.5661 -2.81471 8.6241 3.95937 -32.1439 24.2071 11.1182 15.3937 -22.9908 26.1032 22.713 27.0454 18.7851 -6.3977 4.30274 25.1932 76.2826 110.14 8.01952 7.76782 4.76231 24.8242 9.66671 14.4782 -0.628936 -0.431265 3.28419 4.96365 0.36062 -1.79926 6.5661 2.81471 -8.6241 -3.95937 32.1439 -24.2071 -0.512668 -0.658112 0.00588869 0.0240216 0.488612 0.658143 0 -0.501262 -0.658113 0.00575768 2.39673e-006 0.501227 0.658143 0 
-0.10135 -0.060087 0.031022 5.74878e-013 -4.47476e-008 -5.10946e-006 0 -0 0 0 -0 0 0 -0 0 -0.711481 0.290591 -8.58008e-015 -11.1182 -15.3937 -22.9905 -26.1035 -22.7118 -27.0457 18.7851 6.3977 -4.30274 -25.1932 -76.2826 110.14 -8.01952 -7.76782 -4.76231 -24.8242 -9.66671 -14.4782 0.628936 0.431265 -3.28419 -4.96365 -0.36062 1.79926 -6.5661 -2.81471 8.6241 3.95937 -32.1439 24.2071 11.1182 15.3937 -22.9905 26.1035 22.7118 27.0457 18.7851 -6.3977 4.30274 25.1932 76.2826 110.14 8.01952 7.76782 4.76231 24.8242 9.66671 14.4782 -0.628936 -0.431265 3.28419 4.96365 0.36062 -1.79926 6.5661 2.81471 -8.6241 -3.95937 32.1439 -24.2071 -0.513868 -0.658117 0.00590251 0.0240216 0.489812 0.658148 0 -0.502462 -0.658118 0.00577151 2.41484e-006 0.502427 0.658148 0 
-0.10135 -0.060087 0.0310217 1.43874e-012 -4.48098e-008 -5.10946e-006 0 -0 0 0 -0 0 0 -0 0 -0.711481 0.29059 -3.88256e-019 -11.1182 -15.3937 -22.9905 -26.1035 -22.7118 -27.0457 18.7851 6.3977 -4.30274 -25.1932 -76.2826 110.14 -8.01952 -7.76782 -4.76231 -24.8242 -9.66671 -14.4782 0.628936 0.431265 -3.28419 -4.96365 -0.36062 1.79926 -6.5661 -2.81471 8.6241 3.95937 -32.1439 24.2071 11.1182 15.3937 -22.9905 26.1035 22.7118 27.0457 18.7851 -6.3977 4.30274 25.1932 76.2826 110.14 8.01952 7.76782 4.76231 24.8242 9.66671 14.4782 -0.628936 -0.431265 3.28419 4.96365 0.36062 -1.79926 6.5661 2.81471 -8.6241 -3.95937 32.1439 -24.2071 -0.513881 -0.658117 0.00590267 0.0240216 0.489826 0.658148 0 -0.502476 -0.658118 0.00577166 2.41484e-006 0.50244 0.658148 0 
-0.10135 -0.060087 0.0310217 1.96198e-014 -4.48104e-008 -5.10946e-006 0 -0 0 0 -0 0 0 -0 0 -0.711481 0.29059 -0 -11.1182 -15.3937 -22.9905 -26.1035 -22.7118 -27.0457 18.7851 6.3977 -4.30274 -25.1932 -76.2826 110.14 -8.01952 -7.76782 -4.76231 -24.8242 -9.66671 -14.4782 0.628936 0.431265 -3.28419 -4.96365 -0.36062 1.79926 -6.5661 -2.81471 8.6241 3.95937 -32.1439 24.2071 11.1182 15.3937 -22.9905 26.1035 22.7118 27.0457 18.7851 -6.3977 4.30274 25.1932 76.2826 110.14 8.01952 7.76782 4.76231 24.8242 9.66671 14.4782 -0.628936 -0.431265 3.28419 4.96365 0.36062 -1.79926 6.5661 2.81471 -8.6241 -3.95937 32.1439 -24.2071 -0.513881 -0.658117 0.00590267 0.0240216 0.489826 0.658148 0 -0.502476 -0.658118 0.00577167 3.62225e-008 0.502443 0.658148 0 
-0.10135 -0.060087 0.0310217 1.38865e-012 -4.48104e-008 -5.10946e-006 0 -0 0 0 -0 0 0 -0 0 -0.711481 0.29059 3.88256e-019 -11.1182 -15.3937 -22.9905 -26.1035 -22.7118 -27.0457 18.7851 6.3977 -4.30274 -25.1932 -76.2826 110.14 -8.01952 -7.76782 -4.76231 -24.8242 -9.66671 -14.4782 0.628936 0.431265 -3.28419 -4.96365 -0.36062 1.79926 -6.5661 -2.81471 8.6241 3.95937 -32.1439 24.2071 11.1182 15.3937 -22.9905 26.1035 22.7118 27.0457 18.7851 -6.3977 4.30274 25.1932 76.2826 110.14 8.01952 7.76782 4.76231 24.8242 9.66671 14.4782 -0.628936 -0.431265 3.28419 4.96365 0.36062 -1.79926 6.5661 2.81471 -8.6241 -3.95937 32.1439 -24.2071 -0.513881 -0.658117 0.00590267 0.0240216 0.489826 0.658148 0 -0.502476 -0.658118 0.00577167 1.67767e-006 0.502443 0.658148 0 
-0.10135 -0.060087 0.0310217 6.76901e-013 -4.48104e-008 -5.10946e-006 0 -0 0 0 -0 0 0 -0 0 -0.711481 0.29059 -0 -11.1182 -15.3937 -22.9905 -26.1035 -22.7118 -27.0457 18.7851 6.3977 -4.30274 -25.1932 -76.2826 110.14 -8.01952 -7.76782 -4.76231 -24.8242 -9.66671 -14.4782 0.628936 0.431265 -3.28419 -4.96365 -0.36062 1.79926 -6.5661 -2.81471 8.6241 3.95937 -32.1439 24.2071 11.1182 15.3937 -22.9905 26.1035 22.7118 27.0457 18.7851 -6.3977 4.30274 25.1932 76.2826 110.14 8.01952 7.76782 4.76231 24.8242 9.66671 14.4782 -0.628936 -0.431265 3.28419 4.96365 0.36062 -1.79926 6.5661 2.81471 -8.6241 -3.95937 32.1439 -24.2071 -0.513881 -0.658117 0.00590267 0.0240216 0.489826 0.658148 0 -0.502476 -0.658118 0.00577167 1.70755e-006 0.502441 0.658148 0 
-0.10135 -0.060087 0.0310217 -2.92422e-013 -4.48104e-008 -5.10946e-006 0 -0 0 0 -0 0 0 -0 0 -0.711481 0.29059 -0 -11.1182 -15.3937 -22.9905 -26.1035 -22.7118 -27.0457 18.7851 6.3977 -4.30274 -25.1932 -76.2826 110.14 -8.01952 -7.76782 -4.76231 -24.8242 -9.66671 -14.4782 0.628936 0.431265 -3.28419 -4.96365 -0.36062 1.79926 -6.5661 -2.81471 8.6241 3.95937 -32.1439 24.2071 11.1182 15.3937 -22.9905 26.1035 22.7118 27.0457 18.7851 -6.3977 4.30274 25.1932 76.2826 110.14 8.01952 7.76782 4.76231 24.8242 9.66671 14.4782 -0.628936 -0.431265 3.28419 4.96365 0.36062 -1.79926 6.5661 2.81471 -8.6241 -3.95937 32.1439 -24.2071 -0.513881 -0.658117 0.00590267 0.0240216 0.489826 0.658148 0 -0.502476 -0.658118 0.00577167 2.41484e-006 0.50244 0.658148 0 
-0.10135 -0.060087 0.0310217 1.17332e-012 -4.48104e-008 -5.10946e-006 0 -0 0 0 -0 0 0 -0 0 -0.711481 0.29059 -3.88256e-019 -11.1182 -15.3937 -22.9905 -26.1035 -22.7118 -27.0457 18.7851 6.3977 -4.30274 -25.1932 -76.2826 110.14 -8.01952 -7.76782 -4.76231 -24.8242 -9.66671 -14.4782 0.628936 0.431265 -3.28419 -4.96365 -0.36062 1.79926 -6.5661 -2.81471 8.6241 3.95937 -32.1439 24.2071 11.1182 15.3937 -22.9905 26.1035 22.7118 27.0457 18.7851 -6.3977 4.30274 25.1932 76.2826 110.14 8.01952 7.76782 4.76231 24.8242 9.66671 14.4782 -0.628936 -0.431265 3.28419 4.96365 0.36062 -1.79926 6.5661 2.81471 -8.6241 -3.95937 32.1439 -24.2071 -0.513881 -0.658117 0.00590267 0.0240216 0.489826 0.658148 0 -0.502476 -0.658118 0.00577167 2.41484e-006 0.50244 0.658148 0 
-0.10135 -0.060087 0.0310217 -4.01754e-013 -4.48104e-008 -5.10946e-006 0 -0 0 0 -0 0 0 -0 0 -0.711481 0.29059 3.88256e-019 -11.1182 -15.3937 -22.9905 -26.1035 -22.7118 -27.0457 18.7851 6.3977 -4.30274 -25.1932 -76.2826 110.14 -8.01952 -7.76782 -4.76231 -24.8242 -9.66671 -14.4782 0.628936 0.431265 -3.28419 -4.96365 -0.36062 1.79926 -6.5661 -2.81471 8.6241 3.95937 -32.1439 24.2071 11.1182 15.3937 -22.9905 26.1035 22.7118 27.0457 18.7851 -6.3977 4.30274 25.1932 76.2826 110.14 8.01952 7.76782 4.76231 24.8242 9.66671 14.4782 -0.628936 -0.431265 3.28419 4.96365 0.36062 -1.79926 6.5661 2.81471 -8.6241 -3.95937 32.1439 -24.2071 -0.513881 -0.658117 0.00590267 0.0240216 0.489826 0.658148 0 -0.502476 -0.658118 0.00577167 4.69576e-008 0.502441 0.658148 0 
-0.10135 -0.060087 0.0310217 -5.17439e-014 -4.48104e-008 -5.10946e-006 0 -0 0 0 -0 0 0 -0 0 -0.711481 0.29059 3.88256e-019 -11.1182 -15.3937 -22.9905 -26.1035 -22.7118 -27.0457 18.7851 6.3977 -4.30274 -25.1932 -76.2826 110.14 -8.01952 -7.76782 -4.76231 -24.8242 -9.66671 -14.4782 0.628936 0.431265 -3.28419 -4.96365 -0.36062 1.79926 -6.5661 -2.81471 8.6241 3.95937 -32.1439 24.2071 11.1182 15.3937 -22.9905 26.1035 22.7118 27.0457 18.7851 -6.3977 4.30274 25.1932 76.2826 110.14 8.01952 7.76782 4.76231 24.8242 9.66671 14.4782 -0.628936 -0.431265 3.28419 4.96365 0.36062 -1.79926 6.5661 2.81471 -8.6241 -3.95937 32.1439 -24.2071 -0.513881 -0.658117 0.00590267 0.0240216 0.489826 0.658148 0 -0.502476 -0.658118 0.00577167 0 0.502443 0.658148 0 
-0.10135 -0.060087 0.0310217 -2.879e-013 -4.48104e-008 -5.10946e-006 0 -0 0 0 -0 0 0 -0 0 -0.711481 0.29059 -3.88256e-019 -11.1182 -15.3937 -22.9905 -26.1035 -22.7118 -27.0457 18.7851 6.3977 -4.30274 -25.1932 -76.2826 110.14 -8.01952 -7.76782 -4.76231 -24.8242 -9.66671 -14.4782 0.628936 0.431265 -3.28419 -4.96365 -0.36062 1.79926 -6.5661 -2.81471 8.6241 3.95937 -32.1439 24.2071 11.1182 15.3937 -22.9905 26.1035 22.7118 27.0457 18.7851 -6.3977 4.30274 25.1932 76.2826 110.14 8.01952 7.76782 4.76231 24.8242 9.66671 14.4782 -0.628936 -0.431265 3.28419 4.96365 0.36062 -1.79926 6.5661 2.81471 -8.6241 -3.95937 32.1439 -24.2071 -0.513881 -0.658117 0.00590267 0.0240216 0.489826 0.658148 0 -0.502476 -0.658118 0.00577167 2.73962e-006 0.502443 0.658148 0 
-0.10135 -0.060087 0.0310217 -6.24144e-013 -4.48104e-008 -5.10946e-006 0 -0 0 0 -0 0 0 -0 0 -0.711481 0.29059 -0 -11.1182 -15.3937 -22.9905 -26.1035 -22.7118 -27.0457 18.7851 6.3977 -4.30274 -25.1932 -76.2826 110.14 -8.01952 -7.76782 -4.76231 -24.8242 -9.66671 -14.4782 0.628936 0.431265 -3.28419 -4.96365 -0.36062 1.79926 -6.5661 -2.81471 8.6241 3.95937 -32.1439 24.2071 11.1182 15.3937 -22.9905 26.1035 22.7118 27.0457 18.7851 -6.3977 4.30274 25.1932 76.2826 110.14 8.01952 7.76782 4.76231 24.8242 9.66671 14.4782 -0.628936 -0.431265 3.28419 4.96365 0.36062 -1.79926 6.5661 2.81471 -8.6241 -3.95937 32.1439 -24.2071 -0.513881 -0.658117 0.00590267 0.0240216 0.489826 0.658148 0 -0.502478 -0.658118 0.00577169 1.74689e-006 0.502442 0.658148 0 
